<svg width="100%" height="100%" viewBox="0 0 1440 800" xmlns="http://www.w3.org/2000/svg" preserveAspectRatio="xMidYMid slice">
  <g stroke="#1A1A1A" stroke-width="1.5" fill="none" opacity="0.2">
    <!-- Horizontal/Curved Lines -->
    <path d="M-100,400 Q720,1000 1540,400" />
    <path d="M-100,300 Q720,900 1540,300" />
    <path d="M-100,200 Q720,800 1540,200" />
    <path d="M-100,100 Q720,700 1540,100" />
    <path d="M-100,0 Q720,600 1540,0" />
    <path d="M-100,-100 Q720,500 1540,-100" />
    
    <path d="M-100,500 Q720,1100 1540,500" />
    <path d="M-100,600 Q720,1200 1540,600" />
    <path d="M-100,700 Q720,1300 1540,700" />
    
    <!-- Vertical/Radial Lines -->
    <path d="M720,-100 L720,900" />
    <path d="M720,-100 Q600,400 100,900" />
    <path d="M720,-100 Q840,400 1340,900" />
    <path d="M720,-100 Q400,400 -100,900" />
    <path d="M720,-100 Q1040,400 1540,900" />
    <path d="M720,-100 Q200,400 -300,900" />
    <path d="M720,-100 Q1240,400 1740,900" />
  </g>
</svg>
